<svg xmlns="http://www.w3.org/2000/svg" xmlns:xlink="http://www.w3.org/1999/xlink" width="500" zoomAndPan="magnify" viewBox="0 0 375 374.999991" height="500" preserveAspectRatio="xMidYMid meet" version="1.0"><defs><g/><clipPath id="f9cddeff9f"><path d="M 22 165.488281 L 52 165.488281 L 52 193.988281 L 22 193.988281 Z M 22 165.488281 " clip-rule="nonzero"/></clipPath><clipPath id="3b37ec9dc1"><path d="M 23 166 L 51 166 L 51 193.988281 L 23 193.988281 Z M 23 166 " clip-rule="nonzero"/></clipPath><clipPath id="cc3953651d"><path d="M 22 189 L 53 189 L 53 193.988281 L 22 193.988281 Z M 22 189 " clip-rule="nonzero"/></clipPath><clipPath id="9349f05d20"><path d="M 22 179 L 53.222656 179 L 53.222656 192 L 22 192 Z M 22 179 " clip-rule="nonzero"/></clipPath><clipPath id="189ba530b0"><path d="M 21.722656 178 L 44 178 L 44 189 L 21.722656 189 Z M 21.722656 178 " clip-rule="nonzero"/></clipPath></defs><g clip-path="url(#f9cddeff9f)"><path fill="#060606" d="M 51.007812 179.738281 C 51.007812 180.671875 50.917969 181.601562 50.738281 182.519531 C 50.554688 183.433594 50.285156 184.328125 49.929688 185.191406 C 49.574219 186.054688 49.136719 186.875 48.621094 187.65625 C 48.105469 188.433594 47.515625 189.152344 46.859375 189.8125 C 46.199219 190.476562 45.484375 191.066406 44.710938 191.585938 C 43.9375 192.105469 43.121094 192.546875 42.261719 192.902344 C 41.402344 193.261719 40.515625 193.53125 39.601562 193.714844 C 38.691406 193.898438 37.769531 193.988281 36.839844 193.988281 C 35.90625 193.988281 34.988281 193.898438 34.074219 193.714844 C 33.160156 193.53125 32.273438 193.261719 31.414062 192.902344 C 30.554688 192.546875 29.738281 192.105469 28.964844 191.585938 C 28.191406 191.066406 27.476562 190.476562 26.820312 189.8125 C 26.160156 189.152344 25.574219 188.433594 25.054688 187.65625 C 24.539062 186.875 24.101562 186.054688 23.746094 185.191406 C 23.390625 184.328125 23.121094 183.433594 22.941406 182.519531 C 22.757812 181.601562 22.667969 180.671875 22.667969 179.738281 C 22.667969 178.800781 22.757812 177.875 22.941406 176.957031 C 23.121094 176.039062 23.390625 175.148438 23.746094 174.285156 C 24.101562 173.421875 24.539062 172.597656 25.054688 171.820312 C 25.574219 171.042969 26.160156 170.324219 26.820312 169.660156 C 27.476562 169 28.191406 168.410156 28.964844 167.890625 C 29.738281 167.371094 30.554688 166.929688 31.414062 166.574219 C 32.273438 166.214844 33.160156 165.945312 34.074219 165.761719 C 34.988281 165.578125 35.90625 165.488281 36.839844 165.488281 C 37.769531 165.488281 38.691406 165.578125 39.601562 165.761719 C 40.515625 165.945312 41.402344 166.214844 42.261719 166.574219 C 43.121094 166.929688 43.9375 167.371094 44.710938 167.890625 C 45.484375 168.410156 46.199219 169 46.859375 169.660156 C 47.515625 170.324219 48.105469 171.042969 48.621094 171.820312 C 49.136719 172.597656 49.574219 173.421875 49.929688 174.285156 C 50.285156 175.148438 50.554688 176.039062 50.738281 176.957031 C 50.917969 177.875 51.007812 178.800781 51.007812 179.738281 Z M 51.007812 179.738281 " fill-opacity="1" fill-rule="nonzero"/></g><g clip-path="url(#3b37ec9dc1)"><path fill="#ed9300" d="M 50.261719 179.738281 C 50.261719 180.625 50.175781 181.503906 50.003906 182.371094 C 49.832031 183.242188 49.578125 184.085938 49.242188 184.902344 C 48.902344 185.722656 48.488281 186.5 48 187.238281 C 47.511719 187.976562 46.953125 188.65625 46.332031 189.285156 C 45.707031 189.910156 45.03125 190.46875 44.296875 190.960938 C 43.5625 191.453125 42.789062 191.871094 41.976562 192.210938 C 41.160156 192.550781 40.320312 192.804688 39.457031 192.976562 C 38.59375 193.152344 37.71875 193.238281 36.839844 193.238281 C 35.957031 193.238281 35.082031 193.152344 34.21875 192.976562 C 33.355469 192.804688 32.515625 192.550781 31.699219 192.210938 C 30.886719 191.871094 30.113281 191.453125 29.378906 190.960938 C 28.648438 190.46875 27.96875 189.910156 27.347656 189.285156 C 26.722656 188.65625 26.167969 187.976562 25.675781 187.238281 C 25.1875 186.5 24.773438 185.722656 24.4375 184.902344 C 24.097656 184.085938 23.84375 183.242188 23.671875 182.371094 C 23.5 181.503906 23.414062 180.625 23.414062 179.738281 C 23.414062 178.851562 23.5 177.972656 23.671875 177.105469 C 23.84375 176.234375 24.097656 175.390625 24.4375 174.570312 C 24.773438 173.753906 25.1875 172.976562 25.675781 172.238281 C 26.167969 171.5 26.722656 170.820312 27.347656 170.191406 C 27.96875 169.566406 28.648438 169.003906 29.378906 168.511719 C 30.113281 168.019531 30.886719 167.605469 31.699219 167.265625 C 32.515625 166.925781 33.355469 166.671875 34.21875 166.496094 C 35.082031 166.324219 35.957031 166.238281 36.839844 166.238281 C 37.71875 166.238281 38.59375 166.324219 39.457031 166.496094 C 40.320312 166.671875 41.160156 166.925781 41.976562 167.265625 C 42.789062 167.605469 43.5625 168.019531 44.296875 168.511719 C 45.03125 169.003906 45.707031 169.566406 46.332031 170.191406 C 46.953125 170.820312 47.511719 171.5 48 172.238281 C 48.488281 172.976562 48.902344 173.753906 49.242188 174.570312 C 49.578125 175.390625 49.832031 176.234375 50.003906 177.105469 C 50.175781 177.972656 50.261719 178.851562 50.261719 179.738281 Z M 50.261719 179.738281 " fill-opacity="1" fill-rule="nonzero"/></g><path fill="#ecd500" d="M 49.113281 181.855469 C 49.113281 182.515625 49.050781 183.167969 48.921875 183.8125 C 48.792969 184.460938 48.605469 185.089844 48.351562 185.699219 C 48.101562 186.308594 47.792969 186.886719 47.429688 187.433594 C 47.066406 187.984375 46.652344 188.492188 46.1875 188.957031 C 45.722656 189.425781 45.21875 189.839844 44.675781 190.207031 C 44.128906 190.574219 43.554688 190.882812 42.945312 191.136719 C 42.339844 191.386719 41.714844 191.578125 41.074219 191.707031 C 40.429688 191.835938 39.78125 191.898438 39.125 191.898438 C 38.46875 191.898438 37.820312 191.835938 37.175781 191.707031 C 36.53125 191.578125 35.90625 191.386719 35.300781 191.136719 C 34.695312 190.882812 34.121094 190.574219 33.574219 190.207031 C 33.03125 189.839844 32.523438 189.425781 32.0625 188.957031 C 31.597656 188.492188 31.183594 187.984375 30.820312 187.433594 C 30.453125 186.886719 30.148438 186.308594 29.894531 185.699219 C 29.644531 185.089844 29.457031 184.460938 29.328125 183.8125 C 29.199219 183.167969 29.136719 182.515625 29.136719 181.855469 C 29.136719 181.195312 29.199219 180.542969 29.328125 179.894531 C 29.457031 179.25 29.644531 178.621094 29.894531 178.011719 C 30.148438 177.402344 30.453125 176.824219 30.820312 176.273438 C 31.183594 175.726562 31.597656 175.21875 32.0625 174.75 C 32.523438 174.285156 33.03125 173.867188 33.574219 173.503906 C 34.121094 173.136719 34.695312 172.828125 35.300781 172.574219 C 35.90625 172.320312 36.53125 172.132812 37.175781 172.003906 C 37.820312 171.875 38.46875 171.808594 39.125 171.808594 C 39.78125 171.808594 40.429688 171.875 41.074219 172.003906 C 41.714844 172.132812 42.339844 172.320312 42.945312 172.574219 C 43.554688 172.828125 44.128906 173.136719 44.675781 173.503906 C 45.21875 173.867188 45.722656 174.285156 46.1875 174.75 C 46.652344 175.21875 47.066406 175.726562 47.429688 176.273438 C 47.792969 176.824219 48.101562 177.402344 48.351562 178.011719 C 48.605469 178.621094 48.792969 179.25 48.921875 179.894531 C 49.050781 180.542969 49.113281 181.195312 49.113281 181.855469 Z M 49.113281 181.855469 " fill-opacity="1" fill-rule="nonzero"/><path fill="#ed9300" d="M 30.597656 175.804688 C 30.597656 175.804688 33.949219 175.933594 34.667969 175.863281 C 35.382812 175.792969 38.738281 175.539062 38.738281 175.539062 C 38.738281 175.539062 35.804688 175.335938 35 175.324219 C 34.195312 175.3125 32.800781 175.109375 32.257812 175.109375 C 31.71875 175.109375 29.9375 175.265625 29.9375 175.265625 Z M 30.597656 175.804688 " fill-opacity="1" fill-rule="nonzero"/><path fill="#060606" d="M 25.433594 172.222656 C 25.433594 172.222656 27.4375 172.351562 27.867188 172.28125 C 28.296875 172.207031 30.304688 171.957031 30.304688 171.957031 C 30.304688 171.957031 28.550781 171.753906 28.066406 171.742188 C 27.585938 171.730469 26.75 171.527344 26.429688 171.527344 C 26.105469 171.527344 25.339844 171.683594 25.339844 171.683594 Z M 25.433594 172.222656 " fill-opacity="1" fill-rule="nonzero"/><path fill="#060606" d="M 23.0625 178.804688 C 23.0625 178.804688 23.929688 178.859375 24.117188 178.828125 C 24.300781 178.796875 25.167969 178.6875 25.167969 178.6875 C 25.167969 178.6875 24.410156 178.601562 24.203125 178.597656 C 23.992188 178.589844 23.632812 178.503906 23.492188 178.503906 C 23.351562 178.503906 23.019531 178.570312 23.019531 178.570312 Z M 23.0625 178.804688 " fill-opacity="1" fill-rule="nonzero"/><path fill="#ed9300" d="M 49.648438 180.753906 C 49.648438 180.753906 48.082031 180.640625 47.746094 180.703125 C 47.414062 180.765625 45.847656 180.980469 45.847656 180.980469 C 45.847656 180.980469 47.214844 181.15625 47.59375 181.167969 C 47.96875 181.175781 48.621094 181.351562 48.871094 181.351562 C 49.125 181.351562 49.957031 181.21875 49.957031 181.21875 Z M 49.648438 180.753906 " fill-opacity="1" fill-rule="nonzero"/><path fill="#ed9300" d="M 48.96875 177.128906 C 48.96875 177.128906 44.363281 176.9375 43.375 177.042969 C 42.390625 177.152344 37.777344 177.527344 37.777344 177.527344 C 37.777344 177.527344 41.808594 177.832031 42.917969 177.851562 C 44.023438 177.867188 45.941406 178.171875 46.683594 178.171875 C 47.425781 178.171875 49.878906 177.941406 49.878906 177.941406 Z M 48.96875 177.128906 " fill-opacity="1" fill-rule="nonzero"/><path fill="#060606" d="M 46.878906 169.84375 C 46.878906 169.84375 44.484375 169.742188 43.972656 169.796875 C 43.460938 169.855469 41.0625 170.050781 41.0625 170.050781 C 41.0625 170.050781 43.160156 170.207031 43.734375 170.21875 C 44.308594 170.226562 45.304688 170.386719 45.691406 170.386719 C 46.078125 170.386719 47.351562 170.265625 47.351562 170.265625 Z M 46.878906 169.84375 " fill-opacity="1" fill-rule="nonzero"/><path fill="#060606" d="M 50.664062 179.644531 C 50.664062 179.644531 50.023438 179.582031 49.886719 179.617188 C 49.75 179.652344 49.113281 179.773438 49.113281 179.773438 C 49.113281 179.773438 49.671875 179.871094 49.824219 179.878906 C 49.976562 179.882812 50.242188 179.984375 50.347656 179.984375 C 50.449219 179.984375 50.789062 179.90625 50.789062 179.90625 Z M 50.664062 179.644531 " fill-opacity="1" fill-rule="nonzero"/><path fill="#060606" d="M 24.265625 190.640625 L 25.949219 185.058594 L 46.019531 186.964844 L 48.175781 191.277344 Z M 24.265625 190.640625 " fill-opacity="1" fill-rule="nonzero"/><path fill="#060606" d="M 33.371094 172.433594 C 33.4375 172.324219 33.511719 172.296875 33.59375 172.269531 C 33.742188 172.222656 33.804688 172.097656 33.820312 171.886719 C 33.835938 171.675781 33.964844 171.871094 34.152344 171.644531 C 34.335938 171.417969 34.128906 171.3125 34.246094 171.179688 C 34.359375 171.046875 34.503906 171.164062 34.613281 170.925781 C 34.722656 170.6875 34.449219 170.597656 34.707031 170.550781 C 34.96875 170.507812 35.214844 169.808594 35.214844 169.808594 C 33.480469 169.992188 33.183594 171.328125 33.175781 172.171875 C 32.917969 170.835938 31.242188 170.78125 31.242188 170.78125 C 31.605469 170.953125 31.617188 171.046875 31.625 171.167969 C 31.632812 171.289062 31.71875 171.363281 31.875 171.414062 C 32.03125 171.464844 31.859375 171.527344 31.996094 171.710938 C 32.132812 171.894531 32.25 171.757812 32.332031 171.871094 C 32.410156 171.984375 32.292969 172.070312 32.453125 172.199219 C 32.613281 172.328125 32.730469 172.132812 32.71875 172.34375 C 32.710938 172.449219 32.832031 172.582031 32.953125 172.6875 C 30.507812 171.140625 28.929688 174.003906 28.929688 174.003906 C 29.421875 173.625 29.554688 173.679688 29.722656 173.75 C 29.894531 173.820312 30.050781 173.757812 30.230469 173.578125 C 30.40625 173.398438 30.371094 173.675781 30.714844 173.617188 C 31.058594 173.5625 30.957031 173.300781 31.164062 173.269531 C 31.371094 173.238281 31.410156 173.460938 31.695312 173.332031 C 31.980469 173.199219 31.800781 172.902344 32.070312 173.066406 C 32.144531 173.109375 32.25 173.109375 32.367188 173.089844 C 30.761719 174.074219 31.289062 176.390625 31.289062 176.390625 C 31.402344 175.78125 31.535156 175.730469 31.710938 175.671875 C 31.882812 175.609375 31.960938 175.457031 31.972656 175.203125 C 31.988281 174.949219 32.144531 175.179688 32.363281 174.90625 C 32.578125 174.632812 32.332031 174.507812 32.464844 174.347656 C 32.578125 174.214844 32.714844 174.285156 32.832031 174.152344 C 32.855469 174.15625 32.878906 174.160156 32.90625 174.160156 C 32.957031 174.160156 33.003906 174.148438 33.046875 174.128906 C 33.046875 174.21875 33.109375 174.292969 33.191406 174.320312 C 33.082031 175.480469 32.375 177.066406 29.90625 178.636719 C 25.167969 181.652344 26.453125 184.921875 26.453125 184.921875 L 30.695312 181.464844 C 30.695312 181.464844 29.921875 180.476562 31.71875 178.519531 C 33.132812 176.980469 33.808594 175.527344 33.6875 174.273438 C 33.691406 174.273438 33.699219 174.273438 33.707031 174.273438 C 33.804688 174.273438 33.886719 174.191406 33.886719 174.09375 C 33.886719 174.082031 33.886719 174.070312 33.882812 174.058594 C 33.953125 174.078125 34.027344 174.085938 34.089844 174.164062 C 34.226562 174.324219 33.976562 174.449219 34.195312 174.722656 C 34.410156 174.996094 34.570312 174.765625 34.585938 175.019531 C 34.597656 175.273438 34.671875 175.425781 34.847656 175.484375 C 35.019531 175.546875 35.15625 175.597656 35.269531 176.207031 C 35.269531 176.207031 35.8125 173.808594 34.101562 172.855469 C 34.160156 172.851562 34.207031 172.839844 34.246094 172.820312 C 34.515625 172.65625 34.335938 172.953125 34.621094 173.082031 C 34.910156 173.210938 34.945312 172.992188 35.152344 173.023438 C 35.359375 173.050781 35.257812 173.3125 35.601562 173.371094 C 35.945312 173.429688 35.910156 173.148438 36.085938 173.328125 C 36.265625 173.507812 36.421875 173.574219 36.59375 173.5 C 36.761719 173.429688 36.894531 173.375 37.386719 173.757812 C 37.386719 173.757812 35.8125 170.894531 33.371094 172.433594 Z M 33.371094 172.433594 " fill-opacity="1" fill-rule="nonzero"/><path fill="#060606" d="M 28.035156 175.324219 C 28.046875 175.234375 28.082031 175.199219 28.125 175.160156 C 28.203125 175.085938 28.207031 174.992188 28.15625 174.859375 C 28.105469 174.726562 28.238281 174.808594 28.289062 174.617188 C 28.339844 174.425781 28.183594 174.417969 28.214844 174.304688 C 28.246094 174.191406 28.367188 174.222656 28.367188 174.046875 C 28.367188 173.867188 28.175781 173.894531 28.320312 173.792969 C 28.46875 173.6875 28.417969 173.191406 28.417969 173.191406 C 27.410156 173.800781 27.609375 174.699219 27.84375 175.21875 C 27.308594 174.476562 26.269531 174.921875 26.269531 174.921875 C 26.542969 174.921875 26.574219 174.976562 26.613281 175.050781 C 26.652344 175.121094 26.722656 175.140625 26.835938 175.128906 C 26.945312 175.113281 26.859375 175.199219 26.992188 175.273438 C 27.128906 175.347656 27.160156 175.230469 27.242188 175.277344 C 27.324219 175.320312 27.277344 175.410156 27.410156 175.441406 C 27.542969 175.472656 27.5625 175.320312 27.613281 175.453125 C 27.636719 175.519531 27.75 175.566406 27.851562 175.597656 C 25.921875 175.351562 25.769531 177.550781 25.769531 177.550781 C 25.960938 177.179688 26.058594 177.171875 26.183594 177.167969 C 26.308594 177.164062 26.382812 177.078125 26.441406 176.917969 C 26.5 176.757812 26.558594 176.9375 26.75 176.804688 C 26.945312 176.671875 26.808594 176.542969 26.925781 176.464844 C 27.042969 176.386719 27.128906 176.511719 27.265625 176.347656 C 27.40625 176.1875 27.210938 176.058594 27.421875 176.082031 C 27.476562 176.085938 27.542969 176.054688 27.609375 176.007812 C 26.90625 177.070312 27.882812 178.332031 27.882812 178.332031 C 27.78125 177.929688 27.847656 177.859375 27.9375 177.773438 C 28.027344 177.6875 28.03125 177.570312 27.964844 177.414062 C 27.902344 177.253906 28.066406 177.347656 28.121094 177.121094 C 28.175781 176.890625 27.988281 176.886719 28.023438 176.75 C 28.054688 176.636719 28.160156 176.640625 28.191406 176.523438 C 28.210938 176.519531 28.226562 176.515625 28.242188 176.507812 C 28.273438 176.496094 28.296875 176.472656 28.316406 176.449219 C 28.34375 176.503906 28.402344 176.53125 28.457031 176.523438 C 28.71875 177.265625 28.738281 178.433594 27.675781 180.097656 C 25.636719 183.292969 27.347656 184.921875 27.347656 184.921875 L 28.957031 181.601562 C 28.957031 181.601562 28.207031 181.214844 28.75 179.507812 C 29.175781 178.164062 29.179688 177.085938 28.75 176.355469 C 28.753906 176.351562 28.757812 176.351562 28.761719 176.347656 C 28.820312 176.320312 28.847656 176.25 28.820312 176.1875 C 28.816406 176.179688 28.8125 176.171875 28.808594 176.167969 C 28.859375 176.15625 28.90625 176.140625 28.964844 176.171875 C 29.09375 176.230469 28.976562 176.378906 29.1875 176.484375 C 29.394531 176.589844 29.429688 176.402344 29.507812 176.554688 C 29.585938 176.703125 29.675781 176.773438 29.800781 176.761719 C 29.921875 176.75 30.019531 176.742188 30.261719 177.082031 C 30.261719 177.082031 29.914062 175.464844 28.601562 175.371094 C 28.636719 175.351562 28.660156 175.332031 28.679688 175.308594 C 28.796875 175.128906 28.773438 175.363281 28.984375 175.359375 C 29.195312 175.359375 29.15625 175.210938 29.289062 175.171875 C 29.425781 175.128906 29.4375 175.316406 29.664062 175.253906 C 29.886719 175.191406 29.789062 175.03125 29.949219 175.089844 C 30.105469 175.152344 30.21875 175.144531 30.304688 175.050781 C 30.386719 174.960938 30.453125 174.890625 30.859375 174.980469 C 30.859375 174.980469 29.089844 173.683594 28.035156 175.324219 Z M 28.035156 175.324219 " fill-opacity="1" fill-rule="nonzero"/><g clip-path="url(#cc3953651d)"><path fill="#060606" d="M 52.902344 191.566406 C 52.902344 191.703125 52.804688 191.835938 52.609375 191.96875 C 52.410156 192.105469 52.121094 192.234375 51.734375 192.359375 C 51.347656 192.484375 50.871094 192.601562 50.3125 192.714844 C 49.75 192.828125 49.113281 192.933594 48.398438 193.03125 C 47.683594 193.125 46.90625 193.210938 46.070312 193.289062 C 45.230469 193.363281 44.34375 193.425781 43.410156 193.476562 C 42.476562 193.53125 41.515625 193.570312 40.523438 193.597656 C 39.535156 193.621094 38.535156 193.636719 37.523438 193.636719 C 36.515625 193.636719 35.515625 193.621094 34.523438 193.597656 C 33.53125 193.570312 32.570312 193.53125 31.636719 193.476562 C 30.703125 193.425781 29.820312 193.363281 28.980469 193.289062 C 28.140625 193.210938 27.363281 193.125 26.648438 193.03125 C 25.933594 192.933594 25.296875 192.828125 24.734375 192.714844 C 24.175781 192.601562 23.699219 192.484375 23.316406 192.359375 C 22.929688 192.234375 22.636719 192.105469 22.4375 191.96875 C 22.242188 191.835938 22.144531 191.703125 22.144531 191.566406 C 22.144531 191.429688 22.242188 191.296875 22.4375 191.164062 C 22.636719 191.03125 22.929688 190.902344 23.316406 190.773438 C 23.699219 190.648438 24.175781 190.53125 24.734375 190.417969 C 25.296875 190.304688 25.933594 190.199219 26.648438 190.105469 C 27.363281 190.007812 28.140625 189.921875 28.980469 189.847656 C 29.820312 189.769531 30.703125 189.707031 31.636719 189.65625 C 32.570312 189.601562 33.53125 189.5625 34.523438 189.539062 C 35.515625 189.511719 36.515625 189.496094 37.523438 189.496094 C 38.535156 189.496094 39.535156 189.511719 40.523438 189.539062 C 41.515625 189.5625 42.476562 189.601562 43.410156 189.65625 C 44.34375 189.707031 45.230469 189.769531 46.070312 189.847656 C 46.90625 189.921875 47.683594 190.007812 48.398438 190.105469 C 49.113281 190.199219 49.75 190.304688 50.3125 190.417969 C 50.871094 190.53125 51.347656 190.648438 51.734375 190.773438 C 52.121094 190.902344 52.410156 191.03125 52.609375 191.164062 C 52.804688 191.296875 52.902344 191.429688 52.902344 191.566406 Z M 52.902344 191.566406 " fill-opacity="1" fill-rule="nonzero"/></g><path fill="#a80007" d="M 40.082031 179.109375 L 40.679688 180.652344 L 43.1875 180.183594 L 45.113281 180.78125 L 46.042969 184.292969 L 48.070312 183.089844 C 48.070312 183.089844 50.410156 182.75 51.421875 185.417969 L 52.289062 187.089844 C 52.289062 187.089844 53.03125 187.75 52.699219 188.605469 C 49.351562 188.050781 49.253906 188.703125 48.875 188.734375 C 48.496094 188.765625 43.566406 188.351562 43.566406 188.351562 L 39.203125 188.417969 L 34.222656 185.300781 L 32.800781 186.914062 C 32.800781 186.914062 31.410156 189.242188 29.8125 189.195312 C 28.21875 189.148438 25.816406 189.09375 25.816406 189.09375 C 25.816406 189.09375 25.484375 190.253906 24.742188 190.414062 C 24 190.574219 22.84375 190.242188 23.253906 187.714844 C 22.523438 188.632812 22.242188 188.6875 22.242188 188.6875 L 22.957031 186.460938 C 22.957031 186.460938 24.109375 185.140625 25.972656 184.808594 C 27.839844 184.476562 26.511719 182.5625 26.511719 182.5625 L 32.949219 178.691406 Z M 40.082031 179.109375 " fill-opacity="1" fill-rule="nonzero"/><g clip-path="url(#9349f05d20)"><path fill="#060606" d="M 24.742188 186.953125 C 24.742188 186.953125 23.628906 185.492188 22.957031 187.285156 C 22.285156 189.082031 23.191406 191.359375 24.542969 191.273438 C 26.023438 191.179688 26.035156 189.167969 26.035156 189.167969 L 25.980469 189.609375 C 25.980469 189.609375 27.484375 189.355469 29.886719 189.386719 C 30.019531 190.355469 30.710938 190.695312 31.414062 190.71875 C 32.113281 190.742188 33.125 190 33.066406 188.699219 C 33.167969 189.15625 33.167969 189.261719 33.167969 189.261719 C 33.167969 189.261719 33.640625 189.15625 34.03125 189.265625 C 33.445312 187.398438 33.953125 185.871094 33.953125 185.871094 C 33.953125 185.871094 33.515625 188.273438 34.75 189.761719 C 35.984375 191.246094 38.347656 190.925781 39.011719 188.921875 C 45.03125 188.648438 45.875 189.191406 45.875 189.191406 C 45.875 189.191406 46.417969 190.835938 48.304688 190.835938 C 50.191406 190.835938 50.386719 188.632812 50.386719 188.632812 C 50.386719 188.632812 52.25 188.839844 52.859375 188.726562 C 53.464844 188.609375 53.109375 187.390625 53.109375 187.390625 C 53.109375 187.390625 52.972656 187.980469 52.925781 188.171875 C 52.945312 187.214844 52.289062 187.089844 52.289062 187.089844 C 52.289062 187.089844 52.164062 184.511719 50.335938 183.265625 C 50.855469 183.875 51.039062 184.457031 51.039062 184.457031 C 51.039062 184.457031 50.21875 182.800781 48.195312 182.925781 C 49 181.625 47.09375 180.523438 46.128906 182.035156 C 46.128906 182.035156 45.953125 181.207031 45.535156 180.734375 C 45.117188 180.261719 43.726562 179.996094 43.726562 179.996094 C 43.726562 179.996094 42.039062 180.546875 41.757812 180.835938 C 41.476562 181.128906 41.109375 181.636719 41.109375 181.636719 C 41.109375 181.636719 40.316406 180.527344 39.445312 181.6875 C 38.679688 182.03125 38.5 182.371094 38.5 182.371094 C 38.5 182.371094 37.347656 181.648438 33.566406 182.617188 C 29.789062 183.589844 25.183594 185.046875 25.183594 185.046875 C 25.183594 185.046875 35.296875 181.925781 38.273438 182.636719 C 37.320312 182.601562 36.550781 182.78125 36.550781 182.78125 C 36.550781 182.78125 38.476562 182.414062 40.09375 184.382812 C 39.824219 183.804688 39.75 183.679688 39.75 183.679688 C 39.75 183.679688 40.695312 185.078125 41.117188 185.570312 C 41.539062 186.058594 42.277344 186.71875 42.277344 186.71875 C 42.277344 186.71875 40.789062 186.945312 40.007812 186.503906 C 41.144531 187.1875 41.800781 187.199219 42.871094 187.054688 C 43.941406 186.90625 44.972656 187.523438 46.160156 187.65625 C 47.351562 187.789062 47.058594 186.785156 50.785156 187.132812 C 50.785156 187.132812 49.742188 186.585938 48.351562 186.660156 C 49.023438 185.957031 49.085938 184.609375 47.691406 183.742188 C 49.457031 183.863281 50.203125 185.105469 50.203125 185.105469 C 50.203125 185.105469 49.472656 183.527344 48.179688 183.207031 C 48.179688 183.207031 51.183594 183.234375 51.597656 187.148438 C 51.597656 187.148438 52.539062 186.9375 52.621094 187.980469 C 52.621094 187.980469 51.691406 187.164062 48.847656 187.777344 C 46.003906 188.394531 46.640625 188.527344 44.792969 187.910156 C 42.945312 187.296875 40.152344 188.378906 39.421875 187.363281 C 39.488281 187.726562 39.648438 188.03125 39.648438 188.03125 C 39.648438 188.03125 38.691406 187.539062 38.414062 185.90625 C 38.132812 184.277344 36.8125 181.601562 33.964844 184.636719 C 34.140625 184.324219 34.226562 184.167969 34.226562 184.167969 C 33.230469 184.902344 32.089844 187.28125 29.480469 188.433594 C 26.679688 189.667969 25.082031 188.460938 25.082031 188.460938 C 25.082031 188.460938 25.328125 189.902344 24.300781 190.113281 C 23.273438 190.328125 23.238281 188.78125 23.347656 187.988281 C 23.460938 187.191406 23.847656 186.238281 24.742188 186.953125 Z M 24.742188 186.953125 " fill-opacity="1" fill-rule="nonzero"/></g><path fill="#060606" d="M 34.035156 181.367188 L 33.804688 179.847656 C 33.804688 179.847656 36.566406 178.980469 39.527344 179.351562 L 40.480469 180.238281 L 39.632812 178.949219 L 33.207031 179.375 L 32.917969 179.867188 L 33.25 180.160156 L 33.570312 180.0625 Z M 34.035156 181.367188 " fill-opacity="0.3" fill-rule="nonzero"/><path fill="#ffffff" d="M 38.03125 186.914062 C 38.03125 187.320312 37.988281 187.710938 37.898438 188.085938 C 37.808594 188.460938 37.679688 188.792969 37.511719 189.078125 C 37.34375 189.367188 37.152344 189.589844 36.933594 189.746094 C 36.71875 189.898438 36.488281 189.976562 36.253906 189.976562 C 36.019531 189.976562 35.792969 189.898438 35.574219 189.746094 C 35.355469 189.589844 35.164062 189.367188 34.996094 189.078125 C 34.828125 188.792969 34.699219 188.460938 34.609375 188.085938 C 34.519531 187.710938 34.476562 187.320312 34.476562 186.914062 C 34.476562 186.507812 34.519531 186.113281 34.609375 185.738281 C 34.699219 185.363281 34.828125 185.03125 34.996094 184.746094 C 35.164062 184.457031 35.355469 184.234375 35.574219 184.082031 C 35.792969 183.925781 36.019531 183.847656 36.253906 183.847656 C 36.488281 183.847656 36.71875 183.925781 36.933594 184.082031 C 37.152344 184.234375 37.34375 184.457031 37.511719 184.746094 C 37.679688 185.03125 37.808594 185.363281 37.898438 185.738281 C 37.988281 186.113281 38.03125 186.507812 38.03125 186.914062 Z M 38.03125 186.914062 " fill-opacity="1" fill-rule="nonzero"/><path fill="#060606" d="M 36.8125 184 C 37.398438 184.5 37.804688 185.542969 37.804688 186.75 C 37.804688 188.445312 37.007812 189.816406 36.023438 189.816406 C 35.832031 189.816406 35.644531 189.761719 35.46875 189.664062 C 35.703125 189.863281 35.972656 189.976562 36.253906 189.976562 C 37.234375 189.976562 38.03125 188.605469 38.03125 186.914062 C 38.03125 185.554688 37.519531 184.402344 36.8125 184 Z M 36.8125 184 " fill-opacity="0.3" fill-rule="nonzero"/><path fill="#060606" d="M 37.621094 186.941406 C 37.621094 187.28125 37.585938 187.609375 37.519531 187.925781 C 37.453125 188.238281 37.359375 188.515625 37.234375 188.757812 C 37.113281 188.996094 36.96875 189.183594 36.808594 189.3125 C 36.648438 189.441406 36.480469 189.507812 36.304688 189.507812 C 36.132812 189.507812 35.964844 189.441406 35.800781 189.3125 C 35.640625 189.183594 35.5 188.996094 35.375 188.757812 C 35.253906 188.515625 35.15625 188.238281 35.089844 187.925781 C 35.023438 187.609375 34.992188 187.28125 34.992188 186.941406 C 34.992188 186.601562 35.023438 186.273438 35.089844 185.960938 C 35.15625 185.644531 35.253906 185.367188 35.375 185.128906 C 35.5 184.886719 35.640625 184.703125 35.800781 184.570312 C 35.964844 184.441406 36.132812 184.375 36.304688 184.375 C 36.480469 184.375 36.648438 184.441406 36.808594 184.570312 C 36.96875 184.703125 37.113281 184.886719 37.234375 185.128906 C 37.359375 185.367188 37.453125 185.644531 37.519531 185.960938 C 37.585938 186.273438 37.621094 186.601562 37.621094 186.941406 Z M 37.621094 186.941406 " fill-opacity="1" fill-rule="nonzero"/><g clip-path="url(#189ba530b0)"><path fill="#060606" d="M 23.164062 187.527344 C 23.164062 187.527344 22.648438 189.058594 21.734375 189 C 21.734375 189 22.320312 188.8125 22.535156 187.59375 C 22.851562 185.8125 23.894531 185.230469 24.710938 184.863281 L 24.441406 184.902344 C 24.441406 184.902344 24.816406 182.75 25.097656 182.007812 C 25.375 181.269531 25.84375 180.898438 25.84375 180.898438 C 25.84375 180.898438 25.554688 181.414062 25.449219 181.730469 C 25.449219 181.730469 25.808594 180.863281 27.644531 180.066406 C 29.894531 179.09375 35.4375 177.25 39.996094 178.375 C 38.664062 178.226562 35.691406 178.476562 35.691406 178.476562 C 35.691406 178.476562 38.402344 178.367188 40.367188 178.792969 L 40.082031 179.109375 L 40.488281 180.269531 L 39.515625 179.179688 C 39.515625 179.179688 34.476562 179.011719 33.15625 180.011719 L 33.640625 179.921875 L 34.035156 181.367188 L 33.476562 180.167969 L 34.070312 182.261719 C 34.070312 182.261719 40.707031 180.320312 41.453125 180.109375 C 42.199219 179.898438 42.789062 180.046875 43.1875 180.183594 L 35.933594 182.21875 C 35.933594 182.21875 26.257812 184.777344 24.839844 185.398438 C 24.839844 185.398438 23.308594 185.859375 22.625 188.144531 C 22.949219 187.898438 23.164062 187.527344 23.164062 187.527344 Z M 23.164062 187.527344 " fill-opacity="1" fill-rule="nonzero"/></g><path fill="#a80007" d="M 33.03125 180.363281 L 33.691406 182.324219 C 33.691406 182.324219 33.941406 181.703125 33.03125 180.363281 Z M 33.03125 180.363281 " fill-opacity="1" fill-rule="nonzero"/><path fill="#060606" d="M 34.28125 179.871094 C 34.28125 179.871094 37.273438 179.410156 39.050781 179.453125 C 36.199219 179.746094 35.132812 179.878906 34.28125 179.871094 Z M 34.28125 179.871094 " fill-opacity="1" fill-rule="nonzero"/><path fill="#a80007" d="M 38.964844 178.734375 C 38.402344 178.707031 33.078125 178.507812 27.914062 181.089844 C 27.621094 181.238281 27.351562 181.4375 27.128906 181.683594 C 26.59375 182.289062 26.433594 183.039062 26.515625 183.855469 L 25.296875 184.414062 L 26.800781 184.03125 C 26.800781 184.03125 26.917969 182.140625 28.359375 181.585938 C 29.773438 181.039062 31.566406 180.386719 31.628906 180.363281 C 31.550781 180.394531 28.972656 181.472656 28.1875 182.164062 C 27.394531 182.863281 27.394531 183.910156 27.394531 183.910156 L 32.679688 182.59375 L 24.832031 184.761719 L 25.367188 183.441406 L 24.898438 184.210938 C 24.898438 184.210938 25.152344 182.792969 25.617188 182.046875 C 26.085938 181.296875 27.511719 180.382812 29.902344 179.570312 C 30.871094 179.242188 31.582031 179.011719 32.246094 178.847656 C 33.226562 178.601562 34.101562 178.488281 35.535156 178.367188 C 33.371094 178.730469 32.460938 179.0625 32.460938 179.0625 C 32.460938 179.0625 36.246094 178.582031 38.964844 178.734375 Z M 38.964844 178.734375 " fill-opacity="1" fill-rule="nonzero"/><path fill="#ffffff" d="M 36.304688 188.949219 C 36.234375 188.953125 36.164062 188.945312 36.09375 188.925781 C 36.085938 188.921875 36.050781 188.910156 36.039062 188.90625 C 36.039062 188.90625 36.003906 188.886719 36.003906 188.886719 L 35.984375 188.878906 C 35.976562 188.875 35.945312 188.855469 35.933594 188.851562 C 35.933594 188.851562 35.902344 188.828125 35.902344 188.828125 L 35.882812 188.816406 C 35.816406 188.765625 35.753906 188.707031 35.699219 188.640625 C 35.027344 187.832031 35.023438 186.144531 35.648438 185.304688 C 35.742188 185.179688 35.859375 185.066406 36.003906 184.996094 C 36.003906 184.996094 36.039062 184.980469 36.039062 184.980469 L 36.074219 184.964844 C 36.082031 184.964844 36.089844 184.960938 36.09375 184.960938 C 36.132812 184.949219 36.167969 184.941406 36.210938 184.9375 C 36.242188 184.933594 36.273438 184.933594 36.304688 184.9375 C 36.234375 184.945312 36.171875 184.964844 36.109375 184.992188 C 36.101562 184.996094 36.066406 185.015625 36.058594 185.019531 C 36.039062 185.03125 36.015625 185.046875 36 185.0625 C 36 185.0625 35.96875 185.082031 35.96875 185.082031 C 35.957031 185.09375 35.9375 185.109375 35.925781 185.121094 C 35.921875 185.125 35.894531 185.152344 35.886719 185.160156 C 35.597656 185.480469 35.476562 185.925781 35.410156 186.347656 C 35.316406 187.011719 35.367188 187.78125 35.660156 188.390625 C 35.792969 188.648438 36 188.917969 36.304688 188.949219 Z M 36.304688 188.949219 " fill-opacity="1" fill-rule="nonzero"/><path fill="#ffffff" d="M 36.84375 186.941406 C 36.84375 187.230469 36.789062 187.480469 36.683594 187.683594 C 36.582031 187.886719 36.453125 187.988281 36.304688 187.988281 C 36.15625 187.988281 36.03125 187.886719 35.925781 187.683594 C 35.820312 187.480469 35.769531 187.230469 35.769531 186.941406 C 35.769531 186.652344 35.820312 186.40625 35.925781 186.203125 C 36.03125 185.996094 36.15625 185.894531 36.304688 185.894531 C 36.453125 185.894531 36.582031 185.996094 36.683594 186.203125 C 36.789062 186.40625 36.84375 186.652344 36.84375 186.941406 Z M 36.84375 186.941406 " fill-opacity="1" fill-rule="nonzero"/><path fill="#060606" d="M 36.460938 185.941406 C 36.609375 186.125 36.710938 186.453125 36.710938 186.820312 C 36.710938 187.402344 36.46875 187.871094 36.171875 187.871094 C 36.117188 187.871094 36.066406 187.855469 36.015625 187.824219 C 36.097656 187.929688 36.199219 187.988281 36.304688 187.988281 C 36.601562 187.988281 36.84375 187.519531 36.84375 186.941406 C 36.84375 186.46875 36.683594 186.070312 36.460938 185.941406 Z M 36.460938 185.941406 " fill-opacity="0.3" fill-rule="nonzero"/><path fill="#060606" d="M 36.492188 186.941406 C 36.492188 187.113281 36.46875 187.257812 36.417969 187.378906 C 36.371094 187.5 36.3125 187.558594 36.242188 187.558594 C 36.171875 187.558594 36.113281 187.5 36.0625 187.378906 C 36.011719 187.257812 35.988281 187.113281 35.988281 186.941406 C 35.988281 186.773438 36.011719 186.625 36.0625 186.503906 C 36.113281 186.386719 36.171875 186.324219 36.242188 186.324219 C 36.3125 186.324219 36.371094 186.386719 36.417969 186.503906 C 36.46875 186.625 36.492188 186.773438 36.492188 186.941406 Z M 36.492188 186.941406 " fill-opacity="1" fill-rule="nonzero"/><path fill="#a80007" d="M 38.511719 187.714844 C 38.511719 187.714844 38.558594 189.550781 36.957031 190.269531 C 38.722656 189.980469 38.828125 187.976562 38.511719 187.714844 Z M 38.511719 187.714844 " fill-opacity="1" fill-rule="nonzero"/><path fill="#060606" d="M 24.5 189.371094 C 24.230469 189.371094 24.011719 188.9375 24.011719 188.402344 C 24.011719 187.867188 24.230469 187.433594 24.5 187.433594 C 24.644531 187.433594 24.773438 187.554688 24.863281 187.753906 C 24.746094 187.34375 24.519531 187.0625 24.257812 187.0625 C 23.878906 187.0625 23.574219 187.652344 23.574219 188.378906 C 23.574219 189.101562 23.878906 189.691406 24.257812 189.691406 C 24.488281 189.691406 24.695312 189.46875 24.820312 189.128906 C 24.734375 189.277344 24.621094 189.371094 24.5 189.371094 Z M 24.5 189.371094 " fill-opacity="1" fill-rule="nonzero"/><path fill="#060606" d="M 24.542969 188.457031 C 24.542969 188.617188 24.511719 188.753906 24.453125 188.867188 C 24.390625 188.980469 24.316406 189.035156 24.230469 189.035156 C 24.144531 189.035156 24.070312 188.980469 24.011719 188.867188 C 23.949219 188.753906 23.917969 188.617188 23.917969 188.457031 C 23.917969 188.296875 23.949219 188.160156 24.011719 188.046875 C 24.070312 187.933594 24.144531 187.875 24.230469 187.875 C 24.316406 187.875 24.390625 187.933594 24.453125 188.046875 C 24.511719 188.160156 24.542969 188.296875 24.542969 188.457031 Z M 24.542969 188.457031 " fill-opacity="1" fill-rule="nonzero"/><path fill="#a80007" d="M 25.691406 189.34375 C 25.691406 189.34375 25.445312 190.601562 24.265625 190.421875 C 24.265625 190.421875 25.171875 190.488281 25.691406 189.34375 Z M 25.691406 189.34375 " fill-opacity="1" fill-rule="nonzero"/><path fill="#a80007" d="M 34.027344 185.089844 C 33.773438 185.621094 33.417969 186.097656 33.03125 186.539062 C 32.398438 187.257812 31.628906 187.859375 30.789062 188.308594 C 30.074219 188.683594 29.300781 188.957031 28.507812 189.09375 C 29.730469 188.734375 30.882812 188.175781 31.886719 187.394531 C 32.714844 186.746094 33.457031 185.976562 34.027344 185.089844 Z M 34.027344 185.089844 " fill-opacity="1" fill-rule="nonzero"/><path fill="#ffffff" d="M 39.988281 183.082031 C 40.050781 183.125 40.117188 183.148438 40.191406 183.148438 C 40.425781 183.148438 40.613281 182.90625 40.613281 182.605469 C 40.613281 182.304688 40.425781 182.0625 40.191406 182.0625 C 40.066406 182.0625 39.953125 182.132812 39.875 182.246094 C 39.972656 181.984375 40.1875 181.804688 40.4375 181.804688 C 40.523438 181.804688 40.605469 181.828125 40.679688 181.867188 C 40.550781 181.730469 40.378906 181.648438 40.195312 181.648438 C 39.785156 181.648438 39.453125 182.058594 39.453125 182.5625 C 39.453125 183.066406 39.785156 183.472656 40.195312 183.472656 C 40.378906 183.472656 40.550781 183.390625 40.679688 183.257812 C 40.605469 183.296875 40.523438 183.316406 40.4375 183.316406 C 40.261719 183.316406 40.101562 183.226562 39.988281 183.082031 Z M 39.988281 183.082031 " fill-opacity="1" fill-rule="nonzero"/><path fill="#ffffff" d="M 47.210938 183.117188 C 47.273438 183.160156 47.339844 183.1875 47.414062 183.1875 C 47.648438 183.1875 47.835938 182.941406 47.835938 182.640625 C 47.835938 182.34375 47.648438 182.097656 47.414062 182.097656 C 47.289062 182.097656 47.175781 182.171875 47.097656 182.285156 C 47.195312 182.023438 47.410156 181.84375 47.660156 181.84375 C 47.746094 181.84375 47.828125 181.863281 47.902344 181.902344 C 47.773438 181.769531 47.605469 181.6875 47.417969 181.6875 C 47.007812 181.6875 46.675781 182.09375 46.675781 182.597656 C 46.675781 183.101562 47.007812 183.511719 47.417969 183.511719 C 47.605469 183.511719 47.773438 183.429688 47.902344 183.292969 C 47.828125 183.332031 47.746094 183.355469 47.660156 183.355469 C 47.484375 183.355469 47.324219 183.265625 47.210938 183.121094 Z M 47.210938 183.117188 " fill-opacity="1" fill-rule="nonzero"/><path fill="#060606" d="M 27.890625 180.609375 L 28.417969 180.480469 C 25.875 181.59375 25.605469 183.105469 25.605469 183.105469 L 26.0625 182.675781 L 24.832031 184.761719 L 25.367188 183.441406 L 24.898438 184.210938 C 24.898438 184.210938 25.152344 182.796875 25.617188 182.046875 C 26.085938 181.296875 27.515625 180.382812 29.902344 179.570312 C 30.871094 179.242188 31.582031 179.015625 32.246094 178.847656 C 30.023438 179.511719 27.890625 180.609375 27.890625 180.609375 Z M 27.890625 180.609375 " fill-opacity="0.3" fill-rule="nonzero"/><path fill="#ffffff" d="M 45.6875 182.707031 C 45.703125 182.789062 46.167969 185.429688 46.167969 185.996094 C 46.167969 186.566406 45.566406 187.078125 45.566406 187.078125 C 45.566406 187.078125 43.132812 186.859375 42.941406 186.511719 C 42.75 186.160156 41.484375 182.847656 41.484375 182.847656 L 42.335938 186.425781 L 41.054688 182.265625 L 41.144531 182.066406 L 41.316406 181.6875 L 42.5625 184.988281 L 41.65625 181.910156 L 41.632812 181.835938 C 41.632812 181.835938 41.859375 181.65625 42.160156 181.429688 L 42.257812 181.828125 L 43.292969 186.125 L 42.589844 181.796875 L 42.488281 181.191406 C 42.574219 181.128906 42.664062 181.070312 42.75 181.011719 L 42.953125 181.78125 L 44.226562 186.617188 L 43.332031 181.78125 L 43.140625 180.765625 C 43.222656 180.71875 43.300781 180.679688 43.371094 180.652344 L 43.738281 181.800781 L 45.328125 186.75 L 44.324219 181.878906 L 44.074219 180.671875 C 44.207031 180.714844 44.320312 180.761719 44.398438 180.796875 L 44.6875 181.960938 L 45.546875 185.417969 L 45.132812 182.117188 L 44.984375 180.917969 C 45.320312 181.105469 45.613281 181.335938 45.757812 181.59375 C 45.847656 181.757812 45.9375 182.210938 46.019531 182.753906 C 46.199219 183.953125 46.335938 185.605469 46.335938 185.605469 Z M 45.6875 182.707031 " fill-opacity="1" fill-rule="nonzero"/><path fill="#060606" d="M 24.265625 186.179688 C 24.265625 186.179688 24.988281 186.230469 25.300781 187.558594 C 25.609375 188.890625 28.964844 187.925781 30.03125 187.425781 C 28.066406 187.875 26.804688 187.769531 26.804688 187.769531 C 26.804688 187.769531 30.902344 186.949219 31.484375 186.375 C 32.066406 185.796875 33.84375 183.703125 34.839844 183.226562 C 32.261719 184.132812 31.679688 184.5625 29.070312 185.183594 C 29.820312 184.761719 30.359375 184.492188 30.359375 184.492188 C 30.359375 184.492188 26.117188 185.867188 24.265625 186.179688 Z M 24.265625 186.179688 " fill-opacity="1" fill-rule="nonzero"/><path fill="#060606" d="M 37.859375 183.3125 C 37.859375 183.3125 39.554688 183.496094 40.242188 185.5 C 39.253906 184.15625 37.785156 183.425781 37.859375 183.3125 Z M 37.859375 183.3125 " fill-opacity="1" fill-rule="nonzero"/><path fill="#060606" d="M 50.449219 184.570312 C 50.449219 184.570312 51.390625 185.558594 51.234375 187.199219 C 50.921875 185.648438 50.355469 184.566406 50.449219 184.570312 Z M 50.449219 184.570312 " fill-opacity="1" fill-rule="nonzero"/><path fill="#060606" d="M 34.070312 182.261719 C 34.070312 182.261719 39.082031 180.398438 40.566406 180.367188 Z M 34.070312 182.261719 " fill-opacity="0.3" fill-rule="nonzero"/><path fill="#060606" d="M 46.167969 185.996094 C 46.167969 186.574219 45.566406 187.078125 45.566406 187.078125 C 45.566406 187.078125 43.132812 186.859375 42.941406 186.511719 C 42.75 186.160156 41.484375 182.847656 41.484375 182.847656 L 42.335938 186.425781 L 41.054688 182.265625 L 41.144531 182.066406 L 42.796875 185.625 C 42.980469 186.023438 43.300781 186.34375 43.695312 186.527344 C 43.695312 186.527344 43.222656 184.207031 43.222656 184.207031 L 43.933594 186.195312 C 44.03125 186.472656 44.246094 186.6875 44.523438 186.78125 C 44.523438 186.78125 43.976562 184.324219 43.976562 184.324219 L 44.820312 186.242188 C 44.945312 186.523438 45.191406 186.734375 45.492188 186.8125 C 45.492188 186.8125 45.128906 184.484375 45.128906 184.484375 L 45.71875 186.535156 C 45.71875 186.535156 45.890625 185.871094 45.9375 185.414062 C 45.980469 184.964844 45.695312 182.753906 45.6875 182.707031 C 45.703125 182.789062 46.167969 185.429688 46.167969 185.996094 Z M 46.167969 185.996094 " fill-opacity="0.3" fill-rule="nonzero"/><path fill="#060606" d="M 25.082031 188.460938 C 25.082031 188.460938 28.289062 189.769531 31.871094 186.769531 L 30.652344 187.992188 C 30.652344 187.992188 28.929688 189.050781 27.832031 189.09375 C 26.738281 189.140625 25.390625 188.859375 25.390625 188.859375 Z M 25.082031 188.460938 " fill-opacity="0.3" fill-rule="nonzero"/><path fill="#060606" d="M 38.132812 185.058594 C 38.132812 185.058594 38.640625 186.632812 39.109375 187.078125 C 39.007812 186.449219 38.964844 186.390625 38.964844 186.390625 C 38.964844 186.390625 39.636719 187.574219 41.671875 187.535156 C 43.703125 187.5 43.746094 187.359375 45.242188 187.8125 C 46.742188 188.261719 46.941406 188.15625 48.660156 187.558594 C 50.382812 186.964844 52.015625 187.53125 52.621094 187.976562 C 49.078125 188.460938 48.640625 188.460938 48.585938 188.460938 C 48.535156 188.460938 45.734375 188.59375 45.378906 188.617188 C 45.023438 188.636719 39.796875 188.199219 39.769531 188.199219 C 39.738281 188.199219 38.597656 187.441406 38.597656 187.441406 L 38.132812 185.550781 Z M 38.132812 185.058594 " fill-opacity="0.3" fill-rule="nonzero"/><path fill="#060606" d="M 42.160156 181.429688 L 42.257812 181.828125 C 41.988281 181.855469 41.78125 181.890625 41.65625 181.910156 L 41.632812 181.835938 C 41.632812 181.835938 41.859375 181.65625 42.160156 181.429688 Z M 42.160156 181.429688 " fill-opacity="0.17" fill-rule="nonzero"/><path fill="#060606" d="M 42.75 181.011719 L 42.953125 181.78125 C 42.828125 181.785156 42.703125 181.789062 42.589844 181.796875 L 42.488281 181.191406 C 42.574219 181.128906 42.664062 181.070312 42.75 181.011719 Z M 42.75 181.011719 " fill-opacity="0.17" fill-rule="nonzero"/><path fill="#060606" d="M 43.371094 180.652344 L 43.738281 181.800781 C 43.601562 181.789062 43.464844 181.78125 43.332031 181.78125 L 43.144531 180.765625 C 43.226562 180.71875 43.300781 180.679688 43.371094 180.652344 Z M 43.371094 180.652344 " fill-opacity="0.17" fill-rule="nonzero"/><path fill="#060606" d="M 44.398438 180.796875 L 44.6875 181.960938 C 44.566406 181.929688 44.445312 181.898438 44.324219 181.878906 L 44.078125 180.671875 C 44.207031 180.714844 44.320312 180.761719 44.398438 180.796875 Z M 44.398438 180.796875 " fill-opacity="0.17" fill-rule="nonzero"/><path fill="#060606" d="M 46.019531 182.753906 C 45.78125 182.46875 45.476562 182.265625 45.132812 182.117188 L 44.984375 180.921875 C 45.324219 181.105469 45.613281 181.335938 45.757812 181.59375 C 45.847656 181.757812 45.9375 182.210938 46.019531 182.753906 Z M 46.019531 182.753906 " fill-opacity="0.17" fill-rule="nonzero"/><path fill="#060606" d="M 39.242188 171.699219 C 39.242188 171.699219 38.925781 170.964844 38.234375 171.507812 L 37.996094 171.28125 L 37.980469 171.570312 C 37.464844 171.351562 37.082031 171.792969 36.996094 171.910156 C 37.804688 171.675781 38.15625 172.117188 38.378906 172.546875 C 38.179688 171.785156 38.699219 171.457031 39.242188 171.699219 Z M 39.242188 171.699219 " fill-opacity="1" fill-rule="nonzero"/><path fill="#060606" d="M 43.890625 173.175781 C 43.890625 173.175781 43.730469 172.808594 43.386719 173.078125 L 43.265625 172.964844 L 43.257812 173.113281 C 43 173 42.808594 173.222656 42.765625 173.28125 C 43.171875 173.164062 43.347656 173.382812 43.457031 173.601562 C 43.359375 173.21875 43.617188 173.054688 43.890625 173.175781 Z M 43.890625 173.175781 " fill-opacity="1" fill-rule="nonzero"/><path fill="#060606" d="M 41.21875 173.976562 C 41.21875 173.976562 41.121094 173.75 40.910156 173.917969 L 40.839844 173.847656 L 40.835938 173.9375 C 40.675781 173.871094 40.558594 174.003906 40.535156 174.039062 C 40.78125 173.96875 40.886719 174.101562 40.957031 174.234375 C 40.894531 174 41.054688 173.902344 41.21875 173.976562 Z M 41.21875 173.976562 " fill-opacity="1" fill-rule="nonzero"/><g fill="#060606" fill-opacity="1"><g transform="translate(1.830348, 207.324513)"><g><path d="M 5.59375 -3.84375 L 5.59375 -5.921875 L 0.375 -5.921875 L 0.375 -4.625 L 1.015625 -4.46875 L 1.015625 -1.453125 L 0.375 -1.28125 L 0.375 0 L 3.578125 0 L 3.578125 -1.28125 L 2.765625 -1.453125 L 2.765625 -2.484375 L 4.1875 -2.484375 L 4.1875 -3.5 L 2.765625 -3.5 L 2.765625 -4.46875 L 4.1875 -4.46875 L 4.359375 -3.84375 Z M 5.59375 -3.84375 "/></g></g></g><g fill="#060606" fill-opacity="1"><g transform="translate(7.633591, 207.324513)"><g><path d="M 5.6875 -1.453125 L 4.546875 -5.921875 L 1.125 -5.921875 L 1.125 -4.625 L 1.671875 -4.46875 L 0.796875 -1.453125 L 0.15625 -1.28125 L 0.15625 0 L 2.6875 0 L 2.6875 -1.28125 L 2.28125 -1.453125 L 2.421875 -1.984375 L 3.703125 -1.984375 L 3.859375 -1.453125 L 3.40625 -1.28125 L 3.40625 0 L 6.40625 0 L 6.40625 -1.28125 Z M 3.046875 -4.328125 L 3.421875 -3 L 2.671875 -3 Z M 3.046875 -4.328125 "/></g></g></g><g fill="#060606" fill-opacity="1"><g transform="translate(14.189733, 207.324513)"><g><path d="M 6.40625 -4.625 L 6.40625 -5.921875 L 3.859375 -5.921875 L 3.859375 -4.625 L 4.265625 -4.46875 L 3.515625 -1.875 L 2.734375 -4.46875 L 3.15625 -4.625 L 3.15625 -5.921875 L 0.15625 -5.921875 L 0.15625 -4.625 L 0.71875 -4.46875 L 2.0625 0 L 4.40625 0 L 5.828125 -4.46875 Z M 6.40625 -4.625 "/></g></g></g><g fill="#060606" fill-opacity="1"><g transform="translate(20.745874, 207.324513)"><g><path d="M 5.59375 -3.84375 L 5.59375 -5.921875 L 0.375 -5.921875 L 0.375 -4.625 L 1.015625 -4.46875 L 1.015625 -1.453125 L 0.375 -1.28125 L 0.375 0 L 5.609375 0 L 5.609375 -2.078125 L 4.359375 -2.078125 L 4.1875 -1.453125 L 2.765625 -1.453125 L 2.765625 -2.484375 L 4.1875 -2.484375 L 4.1875 -3.5 L 2.765625 -3.5 L 2.765625 -4.46875 L 4.1875 -4.46875 L 4.359375 -3.84375 Z M 5.59375 -3.84375 "/></g></g></g><g fill="#060606" fill-opacity="1"><g transform="translate(26.709848, 207.324513)"><g><path d="M 2.765625 -4.46875 L 3.96875 -4.46875 L 4.171875 -4.296875 L 4.171875 -3.671875 L 3.96875 -3.5 L 2.765625 -3.5 Z M 3.40625 0 L 3.40625 -1.28125 L 2.765625 -1.453125 L 2.765625 -2.3125 L 3.203125 -2.3125 L 4.5625 0 L 6.171875 0 L 6.171875 -1.375 L 5.71875 -1.453125 L 5.078125 -2.484375 L 5.921875 -3.1875 L 5.921875 -4.96875 L 4.78125 -5.921875 L 0.375 -5.921875 L 0.375 -4.625 L 1.015625 -4.46875 L 1.015625 -1.453125 L 0.375 -1.28125 L 0.375 0 Z M 3.40625 0 "/></g></g></g><g fill="#060606" fill-opacity="1"><g transform="translate(32.995286, 207.324513)"><g/></g></g><g fill="#060606" fill-opacity="1"><g transform="translate(36.243749, 207.324513)"><g><path d="M 2.765625 -4.46875 L 3.96875 -4.46875 L 4.171875 -4.296875 L 4.171875 -3.671875 L 3.96875 -3.5 L 2.765625 -3.5 Z M 3.40625 0 L 3.40625 -1.28125 L 2.765625 -1.453125 L 2.765625 -2.3125 L 3.203125 -2.3125 L 4.5625 0 L 6.171875 0 L 6.171875 -1.375 L 5.71875 -1.453125 L 5.078125 -2.484375 L 5.921875 -3.1875 L 5.921875 -4.96875 L 4.78125 -5.921875 L 0.375 -5.921875 L 0.375 -4.625 L 1.015625 -4.46875 L 1.015625 -1.453125 L 0.375 -1.28125 L 0.375 0 Z M 3.40625 0 "/></g></g></g><g fill="#060606" fill-opacity="1"><g transform="translate(42.529187, 207.324513)"><g><path d="M 5.59375 -3.84375 L 5.59375 -5.921875 L 0.375 -5.921875 L 0.375 -4.625 L 1.015625 -4.46875 L 1.015625 -1.453125 L 0.375 -1.28125 L 0.375 0 L 5.609375 0 L 5.609375 -2.078125 L 4.359375 -2.078125 L 4.1875 -1.453125 L 2.765625 -1.453125 L 2.765625 -2.484375 L 4.1875 -2.484375 L 4.1875 -3.5 L 2.765625 -3.5 L 2.765625 -4.46875 L 4.1875 -4.46875 L 4.359375 -3.84375 Z M 5.59375 -3.84375 "/></g></g></g><g fill="#060606" fill-opacity="1"><g transform="translate(48.493161, 207.324513)"><g><path d="M 4.03125 -5.921875 L 4.03125 -4.625 L 4.671875 -4.46875 L 4.671875 -2.765625 L 2.90625 -5.921875 L 0.375 -5.921875 L 0.375 -4.625 L 1.015625 -4.46875 L 1.015625 -1.453125 L 0.375 -1.28125 L 0.375 0 L 3.140625 0 L 3.140625 -1.28125 L 2.5 -1.453125 L 2.5 -3.296875 L 4.453125 0 L 6.171875 0 L 6.171875 -4.46875 L 6.8125 -4.625 L 6.8125 -5.921875 Z M 4.03125 -5.921875 "/></g></g></g><g fill="#060606" fill-opacity="1"><g transform="translate(55.438442, 207.324513)"><g><path d="M 6.03125 -3.484375 L 6.03125 -5.921875 L 0.140625 -5.921875 L 0.140625 -3.484375 L 1.390625 -3.484375 L 1.5625 -4.5625 L 2.21875 -4.5625 L 2.21875 -1.453125 L 1.5 -1.28125 L 1.5 0 L 4.703125 0 L 4.703125 -1.28125 L 3.96875 -1.453125 L 3.96875 -4.5625 L 4.625 -4.5625 L 4.796875 -3.484375 Z M 6.03125 -3.484375 "/></g></g></g><g fill="#060606" fill-opacity="1"><g transform="translate(61.60544, 207.324513)"><g/></g></g><g fill="#060606" fill-opacity="1"><g transform="translate(64.853903, 207.324513)"><g><path d="M 5.28125 -4.96875 L 4.125 -5.921875 L 1.6875 -5.921875 L 0.375 -4.828125 L 0.375 -1.140625 L 1.734375 0 L 4.078125 0 C 4.273438 -0.164062 4.472656 -0.332031 4.671875 -0.5 C 4.878906 -0.664062 5.082031 -0.832031 5.28125 -1 L 5.28125 -2.078125 L 3.703125 -2.078125 L 3.53125 -1.453125 L 2.375 -1.453125 L 2.125 -1.65625 L 2.125 -4.265625 L 2.359375 -4.46875 L 3.53125 -4.46875 L 3.703125 -3.84375 L 5.28125 -3.84375 Z M 5.28125 -4.96875 "/></g></g></g><g fill="#060606" fill-opacity="1"><g transform="translate(70.521792, 207.324513)"><g><path d="M 5.6875 -1.453125 L 4.546875 -5.921875 L 1.125 -5.921875 L 1.125 -4.625 L 1.671875 -4.46875 L 0.796875 -1.453125 L 0.15625 -1.28125 L 0.15625 0 L 2.6875 0 L 2.6875 -1.28125 L 2.28125 -1.453125 L 2.421875 -1.984375 L 3.703125 -1.984375 L 3.859375 -1.453125 L 3.40625 -1.28125 L 3.40625 0 L 6.40625 0 L 6.40625 -1.28125 Z M 3.046875 -4.328125 L 3.421875 -3 L 2.671875 -3 Z M 3.046875 -4.328125 "/></g></g></g><g fill="#060606" fill-opacity="1"><g transform="translate(77.077936, 207.324513)"><g><path d="M 2.765625 -4.46875 L 3.96875 -4.46875 L 4.171875 -4.296875 L 4.171875 -3.671875 L 3.96875 -3.5 L 2.765625 -3.5 Z M 3.40625 0 L 3.40625 -1.28125 L 2.765625 -1.453125 L 2.765625 -2.3125 L 3.203125 -2.3125 L 4.5625 0 L 6.171875 0 L 6.171875 -1.375 L 5.71875 -1.453125 L 5.078125 -2.484375 L 5.921875 -3.1875 L 5.921875 -4.96875 L 4.78125 -5.921875 L 0.375 -5.921875 L 0.375 -4.625 L 1.015625 -4.46875 L 1.015625 -1.453125 L 0.375 -1.28125 L 0.375 0 Z M 3.40625 0 "/></g></g></g></svg>